<mxfile host="app.diagrams.net" modified="2022-01-11T09:03:04.641Z" agent="5.0 (Windows)" etag="AWqV-f_l91xSLqy9iyHB" version="16.2.4" type="github" pages="2">
  <diagram id="jktMuCbY1RKxJo_EEakk" name="Page-1">
    <mxGraphModel dx="782" dy="420" grid="1" gridSize="10" guides="1" tooltips="1" connect="1" arrows="1" fold="1" page="1" pageScale="1" pageWidth="850" pageHeight="1100" math="0" shadow="0">
      <root>
        <mxCell id="0" />
        <mxCell id="1" parent="0" />
        <mxCell id="2s5wOE44mvXWKUw3ZISF-1" value="Mahasiswa / Dosen" style="swimlane;" parent="1" vertex="1">
          <mxGeometry x="60" y="30" width="200" height="420" as="geometry">
            <mxRectangle x="60" y="30" width="140" height="23" as="alternateBounds" />
          </mxGeometry>
        </mxCell>
        <mxCell id="2s5wOE44mvXWKUw3ZISF-4" value="" style="ellipse;html=1;shape=startState;fillColor=#000000;strokeColor=#ff0000;" parent="2s5wOE44mvXWKUw3ZISF-1" vertex="1">
          <mxGeometry x="80" y="30" width="30" height="30" as="geometry" />
        </mxCell>
        <mxCell id="2s5wOE44mvXWKUw3ZISF-5" value="" style="edgeStyle=orthogonalEdgeStyle;html=1;verticalAlign=bottom;endArrow=open;endSize=8;strokeColor=#ff0000;rounded=0;entryX=0.5;entryY=0;entryDx=0;entryDy=0;" parent="2s5wOE44mvXWKUw3ZISF-1" source="2s5wOE44mvXWKUw3ZISF-4" target="2s5wOE44mvXWKUw3ZISF-6" edge="1">
          <mxGeometry relative="1" as="geometry">
            <mxPoint x="95" y="120" as="targetPoint" />
          </mxGeometry>
        </mxCell>
        <mxCell id="2s5wOE44mvXWKUw3ZISF-6" value="Mengetikkan Alamat Laman Web" style="rounded=1;arcSize=10;whiteSpace=wrap;html=1;align=center;" parent="2s5wOE44mvXWKUw3ZISF-1" vertex="1">
          <mxGeometry x="45" y="80" width="100" height="40" as="geometry" />
        </mxCell>
        <mxCell id="2s5wOE44mvXWKUw3ZISF-8" value="Mengisi Username dan Password" style="rounded=1;arcSize=10;whiteSpace=wrap;html=1;align=center;" parent="2s5wOE44mvXWKUw3ZISF-1" vertex="1">
          <mxGeometry x="50" y="184" width="100" height="40" as="geometry" />
        </mxCell>
        <mxCell id="2s5wOE44mvXWKUw3ZISF-2" value="Sistem" style="swimlane;" parent="1" vertex="1">
          <mxGeometry x="260" y="30" width="200" height="420" as="geometry" />
        </mxCell>
        <mxCell id="2s5wOE44mvXWKUw3ZISF-7" value="Menampilkan Laman Login" style="rounded=1;arcSize=10;whiteSpace=wrap;html=1;align=center;" parent="2s5wOE44mvXWKUw3ZISF-2" vertex="1">
          <mxGeometry x="52" y="120" width="100" height="40" as="geometry" />
        </mxCell>
        <mxCell id="2s5wOE44mvXWKUw3ZISF-10" value="Menampilkan Halaman Utama" style="rounded=1;arcSize=10;whiteSpace=wrap;html=1;align=center;" parent="2s5wOE44mvXWKUw3ZISF-2" vertex="1">
          <mxGeometry x="50" y="282" width="100" height="40" as="geometry" />
        </mxCell>
        <mxCell id="2s5wOE44mvXWKUw3ZISF-12" value="" style="endArrow=open;endFill=1;endSize=12;html=1;rounded=0;entryX=0.5;entryY=0;entryDx=0;entryDy=0;" parent="2s5wOE44mvXWKUw3ZISF-2" target="2s5wOE44mvXWKUw3ZISF-8" edge="1">
          <mxGeometry width="160" relative="1" as="geometry">
            <mxPoint x="100" y="160" as="sourcePoint" />
            <mxPoint x="260" y="160" as="targetPoint" />
            <Array as="points">
              <mxPoint x="-100" y="160" />
            </Array>
          </mxGeometry>
        </mxCell>
        <mxCell id="2s5wOE44mvXWKUw3ZISF-21" value="" style="ellipse;html=1;shape=endState;fillColor=#000000;strokeColor=#ff0000;" parent="2s5wOE44mvXWKUw3ZISF-2" vertex="1">
          <mxGeometry x="85" y="360" width="30" height="30" as="geometry" />
        </mxCell>
        <mxCell id="2s5wOE44mvXWKUw3ZISF-22" value="" style="endArrow=open;endFill=1;endSize=12;html=1;rounded=0;exitX=0.5;exitY=1;exitDx=0;exitDy=0;entryX=0.5;entryY=0;entryDx=0;entryDy=0;" parent="2s5wOE44mvXWKUw3ZISF-2" source="2s5wOE44mvXWKUw3ZISF-10" target="2s5wOE44mvXWKUw3ZISF-21" edge="1">
          <mxGeometry width="160" relative="1" as="geometry">
            <mxPoint x="-60" y="350" as="sourcePoint" />
            <mxPoint x="100" y="350" as="targetPoint" />
          </mxGeometry>
        </mxCell>
        <mxCell id="2s5wOE44mvXWKUw3ZISF-3" value="Database" style="swimlane;" parent="1" vertex="1">
          <mxGeometry x="460" y="30" width="200" height="420" as="geometry" />
        </mxCell>
        <mxCell id="2s5wOE44mvXWKUw3ZISF-32" style="edgeStyle=orthogonalEdgeStyle;rounded=0;orthogonalLoop=1;jettySize=auto;html=1;exitX=0.5;exitY=1;exitDx=0;exitDy=0;entryX=0.5;entryY=0;entryDx=0;entryDy=0;" parent="2s5wOE44mvXWKUw3ZISF-3" source="2s5wOE44mvXWKUw3ZISF-9" target="2s5wOE44mvXWKUw3ZISF-14" edge="1">
          <mxGeometry relative="1" as="geometry" />
        </mxCell>
        <mxCell id="2s5wOE44mvXWKUw3ZISF-9" value="Mengecek Data" style="rounded=1;arcSize=10;whiteSpace=wrap;html=1;align=center;" parent="2s5wOE44mvXWKUw3ZISF-3" vertex="1">
          <mxGeometry x="27" y="220" width="100" height="40" as="geometry" />
        </mxCell>
        <mxCell id="2s5wOE44mvXWKUw3ZISF-25" value="Tidak" style="text;align=center;fontStyle=1;verticalAlign=middle;spacingLeft=3;spacingRight=3;strokeColor=none;rotatable=0;points=[[0,0.5],[1,0.5]];portConstraint=eastwest;" parent="2s5wOE44mvXWKUw3ZISF-3" vertex="1">
          <mxGeometry x="120" y="274" width="40" height="26" as="geometry" />
        </mxCell>
        <mxCell id="2s5wOE44mvXWKUw3ZISF-24" value="Ya" style="text;align=center;fontStyle=1;verticalAlign=middle;spacingLeft=3;spacingRight=3;strokeColor=none;rotatable=0;points=[[0,0.5],[1,0.5]];portConstraint=eastwest;" parent="2s5wOE44mvXWKUw3ZISF-3" vertex="1">
          <mxGeometry x="27" y="300" width="30" height="26" as="geometry" />
        </mxCell>
        <mxCell id="2s5wOE44mvXWKUw3ZISF-14" value="" style="shape=rhombus;perimeter=rhombusPerimeter;whiteSpace=wrap;html=1;align=center;" parent="2s5wOE44mvXWKUw3ZISF-3" vertex="1">
          <mxGeometry x="60" y="290" width="36" height="24" as="geometry" />
        </mxCell>
        <mxCell id="2s5wOE44mvXWKUw3ZISF-11" value="" style="endArrow=open;endFill=1;endSize=12;html=1;rounded=0;entryX=0.5;entryY=0;entryDx=0;entryDy=0;exitX=1;exitY=0.5;exitDx=0;exitDy=0;" parent="1" source="2s5wOE44mvXWKUw3ZISF-6" target="2s5wOE44mvXWKUw3ZISF-7" edge="1">
          <mxGeometry width="160" relative="1" as="geometry">
            <mxPoint x="205" y="139.5" as="sourcePoint" />
            <mxPoint x="365" y="139.5" as="targetPoint" />
            <Array as="points">
              <mxPoint x="362" y="130" />
            </Array>
          </mxGeometry>
        </mxCell>
        <mxCell id="2s5wOE44mvXWKUw3ZISF-17" value="" style="endArrow=open;endFill=1;endSize=12;html=1;rounded=0;exitX=1;exitY=0.5;exitDx=0;exitDy=0;entryX=0.5;entryY=0;entryDx=0;entryDy=0;" parent="1" target="2s5wOE44mvXWKUw3ZISF-9" edge="1">
          <mxGeometry width="160" relative="1" as="geometry">
            <mxPoint x="210" y="235" as="sourcePoint" />
            <mxPoint x="544" y="251" as="targetPoint" />
            <Array as="points">
              <mxPoint x="537" y="235" />
            </Array>
          </mxGeometry>
        </mxCell>
        <mxCell id="2s5wOE44mvXWKUw3ZISF-30" style="edgeStyle=orthogonalEdgeStyle;rounded=0;orthogonalLoop=1;jettySize=auto;html=1;exitX=0;exitY=0.5;exitDx=0;exitDy=0;entryX=1;entryY=0.5;entryDx=0;entryDy=0;" parent="1" source="2s5wOE44mvXWKUw3ZISF-14" target="2s5wOE44mvXWKUw3ZISF-10" edge="1">
          <mxGeometry relative="1" as="geometry" />
        </mxCell>
        <mxCell id="2s5wOE44mvXWKUw3ZISF-31" style="edgeStyle=orthogonalEdgeStyle;rounded=0;orthogonalLoop=1;jettySize=auto;html=1;exitX=1;exitY=0.5;exitDx=0;exitDy=0;entryX=1;entryY=0.5;entryDx=0;entryDy=0;" parent="1" source="2s5wOE44mvXWKUw3ZISF-14" target="2s5wOE44mvXWKUw3ZISF-7" edge="1">
          <mxGeometry relative="1" as="geometry">
            <mxPoint x="420" y="170" as="targetPoint" />
            <Array as="points">
              <mxPoint x="630" y="332" />
              <mxPoint x="630" y="170" />
            </Array>
          </mxGeometry>
        </mxCell>
      </root>
    </mxGraphModel>
  </diagram>
  <diagram id="NHWDqVfMCd9tSPwnF9BE" name="Page-2">
    <mxGraphModel dx="1303" dy="700" grid="1" gridSize="10" guides="1" tooltips="1" connect="1" arrows="1" fold="1" page="1" pageScale="1" pageWidth="850" pageHeight="1100" math="0" shadow="0">
      <root>
        <mxCell id="V-ujotZpwQyQkypNOhEt-0" />
        <mxCell id="V-ujotZpwQyQkypNOhEt-1" parent="V-ujotZpwQyQkypNOhEt-0" />
        <mxCell id="V-ujotZpwQyQkypNOhEt-78" style="edgeStyle=orthogonalEdgeStyle;rounded=0;orthogonalLoop=1;jettySize=auto;html=1;exitX=0.5;exitY=0;exitDx=0;exitDy=0;entryX=0.25;entryY=1;entryDx=0;entryDy=0;" edge="1" parent="V-ujotZpwQyQkypNOhEt-1" source="V-ujotZpwQyQkypNOhEt-2" target="V-ujotZpwQyQkypNOhEt-66">
          <mxGeometry relative="1" as="geometry" />
        </mxCell>
        <mxCell id="V-ujotZpwQyQkypNOhEt-2" value="Biodata_Mhs" style="swimlane;fillColor=#B2C9AB;strokeColor=#788AA3;fontColor=#46495D;startSize=23;" vertex="1" parent="V-ujotZpwQyQkypNOhEt-1">
          <mxGeometry x="62" y="580" width="160" height="230" as="geometry" />
        </mxCell>
        <mxCell id="V-ujotZpwQyQkypNOhEt-16" value="&lt;div&gt;id_Mhs&lt;/div&gt;" style="text;html=1;strokeColor=none;fillColor=none;align=center;verticalAlign=middle;whiteSpace=wrap;rounded=0;fontColor=#46495D;" vertex="1" parent="V-ujotZpwQyQkypNOhEt-2">
          <mxGeometry y="47" width="60" height="30" as="geometry" />
        </mxCell>
        <mxCell id="V-ujotZpwQyQkypNOhEt-19" value="NIM" style="text;html=1;strokeColor=none;fillColor=none;align=center;verticalAlign=middle;whiteSpace=wrap;rounded=0;fontColor=#46495D;" vertex="1" parent="V-ujotZpwQyQkypNOhEt-2">
          <mxGeometry x="-8" y="63" width="60" height="30" as="geometry" />
        </mxCell>
        <mxCell id="V-ujotZpwQyQkypNOhEt-20" value="&lt;div&gt;Email&lt;/div&gt;" style="text;html=1;strokeColor=none;fillColor=none;align=center;verticalAlign=middle;whiteSpace=wrap;rounded=0;fontColor=#46495D;" vertex="1" parent="V-ujotZpwQyQkypNOhEt-2">
          <mxGeometry x="-5" y="80" width="60" height="30" as="geometry" />
        </mxCell>
        <mxCell id="V-ujotZpwQyQkypNOhEt-21" value="&lt;div&gt;Alamat&lt;/div&gt;" style="text;html=1;strokeColor=none;fillColor=none;align=center;verticalAlign=middle;whiteSpace=wrap;rounded=0;fontColor=#46495D;" vertex="1" parent="V-ujotZpwQyQkypNOhEt-2">
          <mxGeometry x="-1" y="97" width="60" height="30" as="geometry" />
        </mxCell>
        <mxCell id="V-ujotZpwQyQkypNOhEt-22" value="No_Handphone" style="text;html=1;strokeColor=none;fillColor=none;align=center;verticalAlign=middle;whiteSpace=wrap;rounded=0;fontColor=#46495D;" vertex="1" parent="V-ujotZpwQyQkypNOhEt-2">
          <mxGeometry x="7" y="114" width="90" height="30" as="geometry" />
        </mxCell>
        <mxCell id="V-ujotZpwQyQkypNOhEt-23" value="&lt;div&gt;Image&lt;/div&gt;" style="text;html=1;strokeColor=none;fillColor=none;align=center;verticalAlign=middle;whiteSpace=wrap;rounded=0;fontColor=#46495D;" vertex="1" parent="V-ujotZpwQyQkypNOhEt-2">
          <mxGeometry x="-3" y="133" width="60" height="30" as="geometry" />
        </mxCell>
        <mxCell id="V-ujotZpwQyQkypNOhEt-27" value="&lt;div&gt;id_dosen&lt;/div&gt;" style="text;html=1;strokeColor=none;fillColor=none;align=center;verticalAlign=middle;whiteSpace=wrap;rounded=0;fontColor=#46495D;" vertex="1" parent="V-ujotZpwQyQkypNOhEt-2">
          <mxGeometry x="5" y="154" width="60" height="30" as="geometry" />
        </mxCell>
        <mxCell id="V-ujotZpwQyQkypNOhEt-70" value="&lt;div&gt;Jurusan&lt;/div&gt;" style="text;html=1;strokeColor=none;fillColor=none;align=center;verticalAlign=middle;whiteSpace=wrap;rounded=0;fontColor=#46495D;" vertex="1" parent="V-ujotZpwQyQkypNOhEt-2">
          <mxGeometry x="2" y="171" width="60" height="30" as="geometry" />
        </mxCell>
        <mxCell id="V-ujotZpwQyQkypNOhEt-77" style="edgeStyle=orthogonalEdgeStyle;rounded=0;orthogonalLoop=1;jettySize=auto;html=1;exitX=0.5;exitY=0;exitDx=0;exitDy=0;entryX=0.75;entryY=1;entryDx=0;entryDy=0;" edge="1" parent="V-ujotZpwQyQkypNOhEt-1" source="V-ujotZpwQyQkypNOhEt-6" target="V-ujotZpwQyQkypNOhEt-66">
          <mxGeometry relative="1" as="geometry" />
        </mxCell>
        <mxCell id="V-ujotZpwQyQkypNOhEt-6" value="Biodata_Dosen" style="swimlane;fillColor=#B2C9AB;strokeColor=#788AA3;fontColor=#46495D;startSize=23;" vertex="1" parent="V-ujotZpwQyQkypNOhEt-1">
          <mxGeometry x="240" y="566" width="160" height="162" as="geometry" />
        </mxCell>
        <mxCell id="V-ujotZpwQyQkypNOhEt-28" value="&lt;div align=&quot;left&quot;&gt;id_dosen&lt;/div&gt;&lt;div align=&quot;left&quot;&gt;NIP&lt;/div&gt;&lt;div align=&quot;left&quot;&gt;Email&lt;/div&gt;&lt;div align=&quot;left&quot;&gt;Alamat&lt;/div&gt;&lt;div align=&quot;left&quot;&gt;No_Handphone&lt;/div&gt;&lt;div align=&quot;left&quot;&gt;Image&lt;/div&gt;&lt;div align=&quot;left&quot;&gt;role_id&lt;/div&gt;" style="text;html=1;strokeColor=none;fillColor=none;align=left;verticalAlign=middle;whiteSpace=wrap;rounded=0;fontColor=#46495D;" vertex="1" parent="V-ujotZpwQyQkypNOhEt-6">
          <mxGeometry x="9" y="34.25" width="70" height="117.75" as="geometry" />
        </mxCell>
        <mxCell id="V-ujotZpwQyQkypNOhEt-58" style="edgeStyle=orthogonalEdgeStyle;rounded=0;orthogonalLoop=1;jettySize=auto;html=1;exitX=0.5;exitY=1;exitDx=0;exitDy=0;entryX=0.5;entryY=0;entryDx=0;entryDy=0;" edge="1" parent="V-ujotZpwQyQkypNOhEt-1" source="V-ujotZpwQyQkypNOhEt-7" target="V-ujotZpwQyQkypNOhEt-14">
          <mxGeometry relative="1" as="geometry" />
        </mxCell>
        <mxCell id="V-ujotZpwQyQkypNOhEt-7" value="Gejala" style="swimlane;fillColor=#B2C9AB;strokeColor=#788AA3;fontColor=#46495D;" vertex="1" parent="V-ujotZpwQyQkypNOhEt-1">
          <mxGeometry x="425" y="55" width="160" height="120" as="geometry" />
        </mxCell>
        <mxCell id="V-ujotZpwQyQkypNOhEt-29" value="&lt;div align=&quot;left&quot;&gt;id&lt;/div&gt;&lt;div align=&quot;left&quot;&gt;Nama&lt;/div&gt;&lt;div align=&quot;left&quot;&gt;Skor&lt;/div&gt;&lt;div align=&quot;left&quot;&gt;tipe_id&lt;/div&gt;&lt;div align=&quot;left&quot;&gt;code_id&lt;br&gt;&lt;/div&gt;" style="text;html=1;strokeColor=none;fillColor=none;align=left;verticalAlign=middle;whiteSpace=wrap;rounded=0;fontColor=#46495D;" vertex="1" parent="V-ujotZpwQyQkypNOhEt-7">
          <mxGeometry x="10" y="29" width="60" height="95" as="geometry" />
        </mxCell>
        <mxCell id="V-ujotZpwQyQkypNOhEt-40" style="edgeStyle=orthogonalEdgeStyle;rounded=0;orthogonalLoop=1;jettySize=auto;html=1;exitX=0.5;exitY=1;exitDx=0;exitDy=0;strokeColor=#788AA3;fontColor=#46495D;" edge="1" parent="V-ujotZpwQyQkypNOhEt-1" source="V-ujotZpwQyQkypNOhEt-8" target="V-ujotZpwQyQkypNOhEt-12">
          <mxGeometry relative="1" as="geometry" />
        </mxCell>
        <mxCell id="V-ujotZpwQyQkypNOhEt-8" value="Menu" style="swimlane;fillColor=#B2C9AB;strokeColor=#788AA3;fontColor=#46495D;" vertex="1" parent="V-ujotZpwQyQkypNOhEt-1">
          <mxGeometry x="680" y="55" width="160" height="90" as="geometry" />
        </mxCell>
        <mxCell id="V-ujotZpwQyQkypNOhEt-30" value="&lt;div align=&quot;left&quot;&gt;id&lt;/div&gt;&lt;div align=&quot;left&quot;&gt;Nama&lt;/div&gt;&lt;div align=&quot;left&quot;&gt;Image&lt;/div&gt;" style="text;html=1;align=left;verticalAlign=middle;resizable=0;points=[];autosize=1;strokeColor=none;fillColor=none;fontColor=#46495D;" vertex="1" parent="V-ujotZpwQyQkypNOhEt-8">
          <mxGeometry x="10" y="35" width="50" height="50" as="geometry" />
        </mxCell>
        <mxCell id="V-ujotZpwQyQkypNOhEt-71" value="" style="edgeStyle=orthogonalEdgeStyle;rounded=0;orthogonalLoop=1;jettySize=auto;html=1;" edge="1" parent="V-ujotZpwQyQkypNOhEt-1" source="V-ujotZpwQyQkypNOhEt-10">
          <mxGeometry relative="1" as="geometry">
            <mxPoint x="510" y="480" as="targetPoint" />
          </mxGeometry>
        </mxCell>
        <mxCell id="V-ujotZpwQyQkypNOhEt-10" value="Riwayat_Uraian" style="swimlane;fillColor=#B2C9AB;strokeColor=#788AA3;fontColor=#46495D;" vertex="1" parent="V-ujotZpwQyQkypNOhEt-1">
          <mxGeometry x="430" y="518" width="160" height="90" as="geometry" />
        </mxCell>
        <mxCell id="V-ujotZpwQyQkypNOhEt-52" value="&lt;div align=&quot;left&quot;&gt;id&lt;/div&gt;&lt;div align=&quot;left&quot;&gt;uraian_id&lt;/div&gt;&lt;div align=&quot;left&quot;&gt;riwayat_id&lt;/div&gt;" style="text;html=1;align=left;verticalAlign=middle;resizable=0;points=[];autosize=1;strokeColor=none;fillColor=none;" vertex="1" parent="V-ujotZpwQyQkypNOhEt-10">
          <mxGeometry x="9" y="40" width="70" height="50" as="geometry" />
        </mxCell>
        <mxCell id="V-ujotZpwQyQkypNOhEt-62" style="edgeStyle=orthogonalEdgeStyle;rounded=0;orthogonalLoop=1;jettySize=auto;html=1;exitX=0;exitY=0.5;exitDx=0;exitDy=0;entryX=1;entryY=0.5;entryDx=0;entryDy=0;" edge="1" parent="V-ujotZpwQyQkypNOhEt-1" source="V-ujotZpwQyQkypNOhEt-11" target="V-ujotZpwQyQkypNOhEt-10">
          <mxGeometry relative="1" as="geometry" />
        </mxCell>
        <mxCell id="V-ujotZpwQyQkypNOhEt-11" value="Uraian" style="swimlane;fillColor=#B2C9AB;strokeColor=#788AA3;fontColor=#46495D;" vertex="1" parent="V-ujotZpwQyQkypNOhEt-1">
          <mxGeometry x="680" y="513" width="160" height="100" as="geometry" />
        </mxCell>
        <mxCell id="V-ujotZpwQyQkypNOhEt-33" value="&lt;div align=&quot;left&quot;&gt;id&lt;/div&gt;&lt;div align=&quot;left&quot;&gt;Nama&lt;/div&gt;&lt;div align=&quot;left&quot;&gt;intervensi_id&lt;/div&gt;&lt;div align=&quot;left&quot;&gt;code_uraian&lt;br&gt;&lt;/div&gt;" style="text;html=1;align=left;verticalAlign=middle;resizable=0;points=[];autosize=1;strokeColor=none;fillColor=none;fontColor=#46495D;" vertex="1" parent="V-ujotZpwQyQkypNOhEt-11">
          <mxGeometry x="10" y="40" width="80" height="60" as="geometry" />
        </mxCell>
        <mxCell id="V-ujotZpwQyQkypNOhEt-59" style="edgeStyle=orthogonalEdgeStyle;rounded=0;orthogonalLoop=1;jettySize=auto;html=1;exitX=0.5;exitY=1;exitDx=0;exitDy=0;entryX=0.5;entryY=0;entryDx=0;entryDy=0;" edge="1" parent="V-ujotZpwQyQkypNOhEt-1" source="V-ujotZpwQyQkypNOhEt-12" target="V-ujotZpwQyQkypNOhEt-13">
          <mxGeometry relative="1" as="geometry" />
        </mxCell>
        <mxCell id="V-ujotZpwQyQkypNOhEt-12" value="Diagnosa" style="swimlane;fillColor=#B2C9AB;strokeColor=#788AA3;fontColor=#46495D;" vertex="1" parent="V-ujotZpwQyQkypNOhEt-1">
          <mxGeometry x="680" y="231" width="160" height="100" as="geometry" />
        </mxCell>
        <mxCell id="V-ujotZpwQyQkypNOhEt-31" value="&lt;div align=&quot;left&quot;&gt;id&lt;/div&gt;&lt;div align=&quot;left&quot;&gt;Nama&lt;/div&gt;&lt;div align=&quot;left&quot;&gt;tipe_id&lt;/div&gt;&lt;div align=&quot;left&quot;&gt;code_diagnosa&lt;/div&gt;" style="text;html=1;align=left;verticalAlign=middle;resizable=0;points=[];autosize=1;strokeColor=none;fillColor=none;fontColor=#46495D;" vertex="1" parent="V-ujotZpwQyQkypNOhEt-12">
          <mxGeometry x="10" y="40" width="100" height="60" as="geometry" />
        </mxCell>
        <mxCell id="V-ujotZpwQyQkypNOhEt-61" style="edgeStyle=orthogonalEdgeStyle;rounded=0;orthogonalLoop=1;jettySize=auto;html=1;exitX=0.5;exitY=1;exitDx=0;exitDy=0;" edge="1" parent="V-ujotZpwQyQkypNOhEt-1" source="V-ujotZpwQyQkypNOhEt-13" target="V-ujotZpwQyQkypNOhEt-11">
          <mxGeometry relative="1" as="geometry" />
        </mxCell>
        <mxCell id="V-ujotZpwQyQkypNOhEt-13" value="Intervensi" style="swimlane;fillColor=#B2C9AB;strokeColor=#788AA3;fontColor=#46495D;" vertex="1" parent="V-ujotZpwQyQkypNOhEt-1">
          <mxGeometry x="680" y="380" width="160" height="100" as="geometry" />
        </mxCell>
        <mxCell id="V-ujotZpwQyQkypNOhEt-32" value="&lt;div align=&quot;left&quot;&gt;id&lt;/div&gt;&lt;div align=&quot;left&quot;&gt;Nama&lt;/div&gt;&lt;div align=&quot;left&quot;&gt;diagnosa_id&lt;/div&gt;&lt;div align=&quot;left&quot;&gt;code_intervensi&lt;br&gt;&lt;/div&gt;" style="text;html=1;align=left;verticalAlign=middle;resizable=0;points=[];autosize=1;strokeColor=none;fillColor=none;fontColor=#46495D;" vertex="1" parent="V-ujotZpwQyQkypNOhEt-13">
          <mxGeometry x="10" y="40" width="100" height="60" as="geometry" />
        </mxCell>
        <mxCell id="V-ujotZpwQyQkypNOhEt-64" style="edgeStyle=orthogonalEdgeStyle;rounded=0;orthogonalLoop=1;jettySize=auto;html=1;exitX=0.5;exitY=1;exitDx=0;exitDy=0;entryX=0.5;entryY=0;entryDx=0;entryDy=0;" edge="1" parent="V-ujotZpwQyQkypNOhEt-1" source="V-ujotZpwQyQkypNOhEt-14" target="V-ujotZpwQyQkypNOhEt-34">
          <mxGeometry relative="1" as="geometry" />
        </mxCell>
        <mxCell id="V-ujotZpwQyQkypNOhEt-14" value="Riwayat_Gejala" style="swimlane;shadow=0;fillColor=#B2C9AB;strokeColor=#788AA3;fontColor=#46495D;" vertex="1" parent="V-ujotZpwQyQkypNOhEt-1">
          <mxGeometry x="425" y="220" width="160" height="100" as="geometry" />
        </mxCell>
        <mxCell id="V-ujotZpwQyQkypNOhEt-51" value="&lt;div align=&quot;left&quot;&gt;id&lt;/div&gt;&lt;div align=&quot;left&quot;&gt;data_id&lt;/div&gt;&lt;div align=&quot;left&quot;&gt;riwayat_id&lt;br&gt;&lt;/div&gt;&lt;div align=&quot;left&quot;&gt;&lt;br&gt;&lt;/div&gt;" style="text;html=1;align=left;verticalAlign=middle;resizable=0;points=[];autosize=1;strokeColor=none;fillColor=none;" vertex="1" parent="V-ujotZpwQyQkypNOhEt-14">
          <mxGeometry x="15" y="50" width="70" height="60" as="geometry" />
        </mxCell>
        <mxCell id="V-ujotZpwQyQkypNOhEt-79" style="edgeStyle=orthogonalEdgeStyle;rounded=0;orthogonalLoop=1;jettySize=auto;html=1;exitX=0;exitY=0.25;exitDx=0;exitDy=0;entryX=0.75;entryY=1;entryDx=0;entryDy=0;" edge="1" parent="V-ujotZpwQyQkypNOhEt-1" source="V-ujotZpwQyQkypNOhEt-34" target="V-ujotZpwQyQkypNOhEt-45">
          <mxGeometry relative="1" as="geometry" />
        </mxCell>
        <mxCell id="V-ujotZpwQyQkypNOhEt-34" value="Riwayat" style="swimlane;startSize=23;fillColor=#B2C9AB;strokeColor=#788AA3;fontColor=#46495D;" vertex="1" parent="V-ujotZpwQyQkypNOhEt-1">
          <mxGeometry x="430" y="379" width="150" height="100" as="geometry" />
        </mxCell>
        <mxCell id="V-ujotZpwQyQkypNOhEt-35" value="&lt;div align=&quot;left&quot;&gt;id&lt;/div&gt;&lt;div align=&quot;left&quot;&gt;user_id&lt;/div&gt;&lt;div align=&quot;left&quot;&gt;uraian_id&lt;/div&gt;&lt;div align=&quot;left&quot;&gt;data_id&lt;br&gt;&lt;/div&gt;" style="text;html=1;align=left;verticalAlign=middle;resizable=0;points=[];autosize=1;strokeColor=none;fillColor=none;fontColor=#46495D;" vertex="1" parent="V-ujotZpwQyQkypNOhEt-34">
          <mxGeometry x="10" y="40" width="60" height="60" as="geometry" />
        </mxCell>
        <mxCell id="V-ujotZpwQyQkypNOhEt-81" style="edgeStyle=orthogonalEdgeStyle;rounded=0;orthogonalLoop=1;jettySize=auto;html=1;exitX=0.25;exitY=1;exitDx=0;exitDy=0;entryX=0.25;entryY=0;entryDx=0;entryDy=0;" edge="1" parent="V-ujotZpwQyQkypNOhEt-1" source="V-ujotZpwQyQkypNOhEt-45" target="V-ujotZpwQyQkypNOhEt-66">
          <mxGeometry relative="1" as="geometry" />
        </mxCell>
        <mxCell id="V-ujotZpwQyQkypNOhEt-45" value="User" style="swimlane;startSize=23;fillColor=#B2C9AB;strokeColor=#788AA3;fontColor=#46495D;" vertex="1" parent="V-ujotZpwQyQkypNOhEt-1">
          <mxGeometry x="108" y="180" width="140" height="162" as="geometry" />
        </mxCell>
        <mxCell id="V-ujotZpwQyQkypNOhEt-46" value="&lt;div align=&quot;left&quot;&gt;id&lt;/div&gt;&lt;div align=&quot;left&quot;&gt;Username&lt;/div&gt;&lt;div align=&quot;left&quot;&gt;Password&lt;/div&gt;&lt;div align=&quot;left&quot;&gt;email&lt;/div&gt;&lt;div align=&quot;left&quot;&gt;role_id&lt;br&gt;&lt;/div&gt;&lt;div align=&quot;left&quot;&gt;Jurusan&lt;/div&gt;" style="text;html=1;align=left;verticalAlign=middle;resizable=0;points=[];autosize=1;strokeColor=none;fillColor=none;fontColor=#46495D;" vertex="1" parent="V-ujotZpwQyQkypNOhEt-45">
          <mxGeometry x="14" y="51" width="70" height="90" as="geometry" />
        </mxCell>
        <mxCell id="V-ujotZpwQyQkypNOhEt-57" style="edgeStyle=orthogonalEdgeStyle;rounded=0;orthogonalLoop=1;jettySize=auto;html=1;entryX=1;entryY=0.5;entryDx=0;entryDy=0;" edge="1" parent="V-ujotZpwQyQkypNOhEt-1" source="V-ujotZpwQyQkypNOhEt-30" target="V-ujotZpwQyQkypNOhEt-7">
          <mxGeometry relative="1" as="geometry" />
        </mxCell>
        <mxCell id="V-ujotZpwQyQkypNOhEt-66" value="Role" style="swimlane;startSize=23;fillColor=#B2C9AB;strokeColor=#788AA3;fontColor=#46495D;" vertex="1" parent="V-ujotZpwQyQkypNOhEt-1">
          <mxGeometry x="105" y="425" width="150" height="100" as="geometry" />
        </mxCell>
        <mxCell id="V-ujotZpwQyQkypNOhEt-67" value="&lt;div align=&quot;left&quot;&gt;id&lt;/div&gt;&lt;div align=&quot;left&quot;&gt;nama_role&lt;br&gt;&lt;/div&gt;" style="text;html=1;align=left;verticalAlign=middle;resizable=0;points=[];autosize=1;strokeColor=none;fillColor=none;fontColor=#46495D;" vertex="1" parent="V-ujotZpwQyQkypNOhEt-66">
          <mxGeometry x="10" y="50" width="70" height="30" as="geometry" />
        </mxCell>
      </root>
    </mxGraphModel>
  </diagram>
</mxfile>
